<?xml version="1.0" encoding="UTF-8"?>
<!DOCTYPE svg PUBLIC "-//W3C//DTD SVG 1.1//EN" "http://www.w3.org/Graphics/SVG/1.1/DTD/svg11.dtd">
<!-- Creator: CorelDRAW 2021 (64 Bit) -->
<svg xmlns="http://www.w3.org/2000/svg" xml:space="preserve" width="210mm" height="297mm" version="1.1" style="shape-rendering:geometricPrecision; text-rendering:geometricPrecision; image-rendering:optimizeQuality; fill-rule:evenodd; clip-rule:evenodd"
viewBox="0 0 21000 29700"
 xmlns:xlink="http://www.w3.org/1999/xlink"
 xmlns:xodm="http://www.corel.com/coreldraw/odm/2003">
 <defs>
  <style type="text/css">
   <![CDATA[
    .str0 {stroke:#CB3448;stroke-width:20;stroke-miterlimit:22.9256}
    .fil0 {fill:#CB3448}
   ]]>
  </style>
 </defs>
 <g id="Camada_x0020_1">
  <metadata id="CorelCorpID_0Corel-Layer"/>
  <g id="_1943758441152">
   <path class="fil0 str0" d="M49282.34 21534.96c-9.3,151.34 90.1,168.94 213.49,366.3 252.4,403.69 301.78,913.33 122.78,1354.35 -462.45,1139.31 -2140.38,1271.25 -2721.72,-0.68 -125.41,-274.41 -145.26,-657.06 -50.77,-969.4 175.82,-581.16 403.2,-514.56 383.84,-745.23 -86.56,-55.34 -130.52,-27.38 -194.38,43.47 -694.53,770.45 -509.34,1909.37 242.41,2446.3 1364.73,974.75 3040.19,-400.87 2555.4,-1843.24 -54.27,-161.47 -123.03,-299.98 -213.19,-432.42 -122.67,-180.18 -197.14,-291.6 -337.86,-219.45z"/>
   <path class="fil0 str0" d="M47615.49 22339.15c0.89,119.04 223.1,290.93 297.91,366.05 409.77,411.4 295.4,391.52 709.74,-22.31 153.46,-153.29 287.42,-234.16 271.51,-359.91 -182.82,-127.84 -303.11,215.45 -544.22,370.64l-1.38 -1355.43c0.88,-169.76 51.09,-321.27 -159.15,-286.36 -65.21,149.22 -14.06,1346.88 -29.41,1636.19 -277.18,-204.86 -394.85,-525.93 -545,-348.87z"/>
  </g>
 </g>
</svg>
